<svg width="165" height="18" viewBox="0 0 165 18" fill="none" xmlns="http://www.w3.org/2000/svg">
<g clip-path="url(#clip0_1_4027)">
<path d="M106.349 14.2502H116.199V17.7002H102.449V0.300182H106.349V14.2502ZM84.9254 17.7002H98.6754V14.2952H88.7715V10.7027H97.5295V7.29768H88.7715V3.70518H98.6754V0.300182H84.9254V17.7002ZM119.885 17.7002H123.784V0.300182H119.885V17.7002ZM45.1497 0.300182H41.25V17.7002H55V14.2502H45.1497V0.300182ZM58.6858 17.7002H62.5854V0.300182H58.6858V17.7002ZM161.1 0.300182V11.1752L152.824 0.487681L152.678 0.300182H148.924V17.7002H152.824V6.64893L161.1 17.3214L161.394 17.6964H165V0.300182H161.1ZM145.139 5.45643C144.68 4.39284 144.008 3.43021 143.164 2.62518C142.3 1.8059 141.285 1.15557 140.174 0.708932C137.731 -0.235924 135.015 -0.235924 132.573 0.708932C131.464 1.14907 130.455 1.79961 129.603 2.62327C128.751 3.44693 128.073 4.42754 127.608 5.50893C127.125 6.61164 126.878 7.79993 126.882 9.00018V9.04893C126.869 10.2475 127.103 11.4362 127.569 12.5439C128.027 13.6083 128.699 14.5712 129.544 15.3752C130.408 16.1931 131.423 16.8422 132.535 17.2877C133.738 17.7709 135.027 18.0132 136.327 18.0002C137.636 18.0148 138.934 17.7738 140.147 17.2914C141.255 16.8524 142.265 16.2027 143.117 15.3797C143.969 14.5566 144.647 13.5763 145.112 12.4952C145.593 11.3908 145.836 10.201 145.826 9.00018V8.95143C145.839 7.75289 145.605 6.56417 145.139 5.45643ZM141.812 9.04893C141.822 9.77737 141.692 10.5011 141.43 11.1827C141.173 11.8287 140.796 12.4225 140.319 12.9339C139.837 13.4433 139.251 13.8471 138.6 14.1189C137.907 14.4085 137.161 14.5541 136.408 14.5464C135.648 14.5574 134.895 14.4064 134.2 14.1039C133.547 13.8194 132.958 13.4114 132.465 12.903C131.973 12.3947 131.588 11.7961 131.332 11.1414C131.068 10.4576 130.939 9.73115 130.95 9.00018V8.95143C130.939 8.22288 131.068 7.49886 131.332 6.81768C131.589 6.17164 131.966 5.5779 132.443 5.06643C132.921 4.5599 133.501 4.15638 134.147 3.88143C134.844 3.58972 135.596 3.44412 136.354 3.45393C137.11 3.44614 137.859 3.59701 138.55 3.89643C139.206 4.17823 139.798 4.58482 140.292 5.09268C140.786 5.60054 141.173 6.19959 141.43 6.85518C141.691 7.54092 141.821 8.26817 141.812 9.00018V9.04893ZM82.1181 0.300182H77.4278L70.2358 7.76643V0.300182H66.3361V17.7002H70.2358V12.3752L72.2868 10.2902L77.783 17.7002H82.4656L74.9184 7.68393L82.1181 0.300182ZM24.0625 6.62643L34.375 0.300182H24.0625V6.62643ZM24.0625 13.2002V17.7002H10.3125V6.62643L0 0.300182H12.1458V13.2002H24.0625Z" fill="white"/>
</g>
<defs>
<clipPath id="clip0_1_4027">
<rect width="165" height="18" fill="white"/>
</clipPath>
</defs>
</svg>
